<svg width="24" height="24" viewBox="0 0 24 24" fill="none" xmlns="http://www.w3.org/2000/svg">
<path d="M17.25 9.33301H16.6667V6.99967C16.6667 4.42601 14.5737 2.33301 12 2.33301C9.42633 2.33301 7.33333 4.42601 7.33333 6.99967V9.33301H6.75C5.78556 9.33301 5 10.1178 5 11.083V19.2497C5 20.2149 5.78556 20.9997 6.75 20.9997H17.25C18.2144 20.9997 19 20.2149 19 19.2497V11.083C19 10.1178 18.2144 9.33301 17.25 9.33301ZM8.88889 6.99967C8.88889 5.2839 10.2842 3.88856 12 3.88856C13.7158 3.88856 15.1111 5.2839 15.1111 6.99967V9.33301H8.88889V6.99967ZM12.7778 15.339V17.1108C12.7778 17.5401 12.4301 17.8886 12 17.8886C11.5699 17.8886 11.2222 17.5401 11.2222 17.1108V15.339C10.7594 15.0691 10.4444 14.5729 10.4444 13.9997C10.4444 13.1418 11.1421 12.4441 12 12.4441C12.8579 12.4441 13.5556 13.1418 13.5556 13.9997C13.5556 14.5729 13.2406 15.0691 12.7778 15.339Z" fill="#59648A"/>
</svg>
