<svg width="26" height="22" viewBox="0 0 26 22" fill="none" xmlns="http://www.w3.org/2000/svg">
<path d="M26 2.565C25.0331 3 24.0029 3.28833 22.9287 3.42833C24.0337 2.75167 24.8771 1.68833 25.2736 0.406667C24.2434 1.03667 23.1059 1.48167 21.8936 1.73C20.9154 0.661667 19.5211 0 18.0001 0C15.0491 0 12.6734 2.45667 12.6734 5.46833C12.6734 5.90167 12.7091 6.31833 12.7969 6.715C8.3655 6.49333 4.44438 4.315 1.81025 0.996667C1.35037 1.815 1.08063 2.75167 1.08063 3.76C1.08063 5.65333 2.03125 7.33167 3.44825 8.30333C2.59187 8.28667 1.75175 8.03167 1.04 7.63C1.04 7.64667 1.04 7.66833 1.04 7.69C1.04 10.3467 2.88762 12.5533 5.3105 13.0617C4.87663 13.1833 4.40375 13.2417 3.913 13.2417C3.57175 13.2417 3.22725 13.2217 2.90387 13.1483C3.5945 15.3133 5.55425 16.905 7.8845 16.9567C6.071 18.4117 3.76838 19.2883 1.27562 19.2883C0.8385 19.2883 0.41925 19.2683 0 19.2133C2.36112 20.775 5.15938 21.6667 8.177 21.6667C17.9855 21.6667 23.348 13.3333 23.348 6.11C23.348 5.86833 23.3399 5.635 23.3285 5.40333C24.3864 4.63333 25.2752 3.67167 26 2.565Z" fill="#2AA2EF"/>
</svg>
