<svg width="26" height="26" viewBox="0 0 26 26" fill="none" xmlns="http://www.w3.org/2000/svg">
<path fill-rule="evenodd" clip-rule="evenodd" d="M22.3567 3.65132C20.0061 1.298 16.8802 0.00143743 13.5498 0C6.68748 0 1.10233 5.58479 1.09957 12.4493C1.09873 14.6435 1.67191 16.7853 2.76149 18.6735L0.995239 25.1249L7.59522 23.3936C9.41369 24.3855 11.4611 24.9083 13.5448 24.909H13.5499C20.4115 24.909 25.9971 19.3235 26 12.459C26.0012 9.1325 24.7073 6.00452 22.3567 3.65132Z" fill="url(#paint0_linear)"/>
<path d="M17.1004 14.0438C17.3856 14.1476 18.9149 14.9003 19.226 15.0559C19.5371 15.2117 19.7444 15.2896 19.8221 15.4192C19.8999 15.5489 19.8999 16.1718 19.6407 16.8985C19.3814 17.6252 18.1387 18.2884 17.5409 18.3778C17.005 18.4578 16.3269 18.4913 15.5816 18.2545C15.1298 18.111 14.5502 17.9197 13.8082 17.5992C10.6876 16.2516 8.64945 13.1095 8.49397 12.9019L8.49133 12.8983C8.32622 12.678 7.22375 11.2067 7.22375 9.68381C7.22375 8.15258 8.0274 7.39997 8.31249 7.08852C8.5977 6.77708 8.93466 6.69922 9.14201 6.69922C9.34948 6.69922 9.55707 6.70125 9.7383 6.71024C9.92924 6.71982 10.1857 6.63777 10.4382 7.24425C10.6974 7.86713 11.3196 9.39836 11.3973 9.5542C11.4752 9.7098 11.5271 9.89152 11.4233 10.0991C11.3196 10.3067 11.2679 10.4365 11.1123 10.6181C10.9566 10.7997 10.7855 11.0237 10.6456 11.1632C10.4897 11.3183 10.3277 11.4866 10.5091 11.798C10.6906 12.1096 11.3149 13.1283 12.2397 13.9531C13.428 15.013 14.4302 15.3415 14.7414 15.4972C15.0524 15.653 15.2339 15.6269 15.4153 15.4194C15.5968 15.2117 16.1931 14.5111 16.4004 14.1996C16.6078 13.8882 16.8153 13.9402 17.1004 14.0438Z" fill="white"/>
<defs>
<linearGradient id="paint0_linear" x1="13.4976" y1="0" x2="13.4976" y2="25.1249" gradientUnits="userSpaceOnUse">
<stop stop-color="#67FA82"/>
<stop offset="1" stop-color="#33CF4C"/>
</linearGradient>
</defs>
</svg>
