<svg width="24" height="24" viewBox="0 0 24 24" fill="none" xmlns="http://www.w3.org/2000/svg">
<path d="M11.9794 3C7.27402 3 3.41488 6.59509 3 11.1818H10.3394V8.72724C10.3394 8.39675 10.5394 8.09817 10.8453 7.97128C11.1521 7.84453 11.5046 7.9148 11.7392 8.14881L15.0193 11.4216C15.3401 11.7415 15.3401 12.2585 15.0193 12.5785L11.7392 15.8512C11.5046 16.0852 11.1521 16.1556 10.8453 16.0287C10.5394 15.902 10.3394 15.6033 10.3394 15.2728V12.8182H3C3.41488 17.4049 7.27402 21 11.9794 21C16.9613 21 21 16.9705 21 12.0001C21 7.02955 16.9613 3 11.9794 3V3Z" fill="#00CD86"/>
</svg>
